#N canvas -2266 45 2192 1242 12;
#X obj 562 41 p;
#X obj 27 116 nbx 7 72 -1e+37 1e+37 0 0 empty empty empty 0 -8 0 48
-262144 -1 -1 0.229453 256;
#X obj 368 117 nbx 7 72 -1e+37 1e+37 0 0 empty empty empty 0 -8 0 48
-262144 -1 -1 0.0902079 256;
#X obj 706 116 nbx 7 72 -1e+37 1e+37 0 0 empty empty empty 0 -8 0 48
-262144 -1 -1 -0.649326 256;
#X obj 44 66 unpack 0 0 0;
#X obj 21 1 OSCrx 54321;
#X obj 44 43 OSCparse /face/position;
#X obj 27 246 nbx 7 72 -1e+37 1e+37 0 0 empty empty empty 0 -8 0 48
-262144 -1 -1 0.229453 256;
#X obj 368 247 nbx 7 72 -1e+37 1e+37 0 0 empty empty empty 0 -8 0 48
-262144 -1 -1 0.0902079 256;
#X obj 706 246 nbx 7 72 -1e+37 1e+37 0 0 empty empty empty 0 -8 0 48
-262144 -1 -1 0.350674 256;
#X obj 44 196 unpack 0 0 0;
#X obj 223 66 OSCparse /face/localPosition;
#X obj 20 387 nbx 7 72 -1e+37 1e+37 0 0 empty empty empty 0 -8 0 48
-262144 -1 -1 354.871 256;
#X obj 361 388 nbx 7 72 -1e+37 1e+37 0 0 empty empty empty 0 -8 0 48
-262144 -1 -1 34.0408 256;
#X obj 699 387 nbx 7 72 -1e+37 1e+37 0 0 empty empty empty 0 -8 0 48
-262144 -1 -1 358.962 256;
#X obj 32 361 unpack 0 0 0;
#X obj 17 539 nbx 7 72 -1e+37 1e+37 0 0 empty empty empty 0 -8 0 48
-262144 -1 -1 338.031 256;
#X obj 357 468 nbx 7 72 -1e+37 1e+37 0 0 empty empty empty 0 -8 0 48
-262144 -1 -1 39.0433 256;
#X obj 696 539 nbx 7 72 -1e+37 1e+37 0 0 empty empty empty 0 -8 0 48
-262144 -1 -1 0.503863 256;
#X obj 34 489 unpack 0 0 0;
#X obj 65 326 OSCparse /face/eulers;
#X obj 266 339 OSCparse /camera/eulers;
#X obj 357 545 -;
#X obj 372 557 nbx 7 72 -1e+37 1e+37 0 0 empty empty empty 0 -8 0 48
-262144 -1 -1 4.49903 256;
#X obj 1412 734 OSCtx;
#X msg 1195 641 /head/position \$1 \$2 \$3;
#X msg 1406 563 connect 192.168.0.246 9000;
#X msg 1117 701 /head/eulers \$1 \$2 \$3;
#X connect 4 0 1 0;
#X connect 4 1 2 0;
#X connect 4 2 3 0;
#X connect 5 0 6 0;
#X connect 6 0 4 0;
#X connect 6 0 25 0;
#X connect 6 1 11 0;
#X connect 10 0 7 0;
#X connect 10 1 8 0;
#X connect 10 2 9 0;
#X connect 11 0 10 0;
#X connect 11 1 20 0;
#X connect 13 0 22 1;
#X connect 15 0 12 0;
#X connect 15 1 13 0;
#X connect 15 2 14 0;
#X connect 17 0 22 0;
#X connect 19 0 16 0;
#X connect 19 1 17 0;
#X connect 19 2 18 0;
#X connect 20 0 15 0;
#X connect 20 0 27 0;
#X connect 20 1 21 0;
#X connect 21 0 19 0;
#X connect 22 0 23 0;
#X connect 25 0 24 0;
#X connect 26 0 24 0;
#X connect 27 0 24 0;
